<svg xmlns="http://www.w3.org/2000/svg" viewBox="0 0 100 100" fill="none">
  <path d="M50 95C74.8528 95 95 74.8528 95 50C95 25.1472 74.8528 5 50 5C25.1472 5 5 25.1472 5 50C5 74.8528 25.1472 95 50 95Z" fill="#FFD21E"/>
  <path d="M29.5 40C32.5376 40 35 37.5376 35 34.5C35 31.4624 32.5376 29 29.5 29C26.4624 29 24 31.4624 24 34.5C24 37.5376 26.4624 40 29.5 40Z" fill="#1A1A1A"/>
  <path d="M70.5 40C73.5376 40 76 37.5376 76 34.5C76 31.4624 73.5376 29 70.5 29C67.4624 29 65 31.4624 65 34.5C65 37.5376 67.4624 40 70.5 40Z" fill="#1A1A1A"/>
  <path d="M50 75C61.0457 75 70 66.0457 70 55H30C30 66.0457 38.9543 75 50 75Z" fill="#1A1A1A"/>
  <ellipse cx="29.5" cy="34" rx="4" ry="5" fill="white"/>
  <ellipse cx="70.5" cy="34" rx="4" ry="5" fill="white"/>
</svg>
